<?xml version="1.0" encoding="UTF-8" standalone="no"?>
<svg width="45px" height="40px" viewBox="0 0 45 40" version="1.1" xmlns="http://www.w3.org/2000/svg" xmlns:xlink="http://www.w3.org/1999/xlink" xmlns:sketch="http://www.bohemiancoding.com/sketch/ns">
    <!-- Generator: Sketch 3.4.4 (17249) - http://www.bohemiancoding.com/sketch -->
    <title>observatory-logo</title>
    <desc>Created with Sketch.</desc>
    <defs></defs>
    <g id="Page-1" stroke="none" stroke-width="1" fill="none" fill-rule="evenodd" sketch:type="MSPage">
        <g id="Desktop-HD" sketch:type="MSArtboardGroup" transform="translate(-282.000000, -27.000000)">
            <g id="observatory-logo" sketch:type="MSLayerGroup" transform="translate(282.000000, 27.000000)">
                <g id="Layer_1" sketch:type="MSShapeGroup">
                    <g id="Group" transform="translate(17.527640, 6.888139)" fill="#6621D7">
                        <path d="M4.08020472,5.11874865 L3.43599211,5.76336371 C3.20037466,5.99899548 3.20037466,6.38128722 3.43599211,6.61691899 C3.55322616,6.73430437 3.7078142,6.79285356 3.86154022,6.79285356 C4.01584092,6.79285356 4.17100364,6.73487838 4.28766301,6.61691899 L4.93302497,5.97230394 C5.16864242,5.73695917 5.16864242,5.35438043 4.93302497,5.11874865 C4.69740751,4.88311688 4.31610951,4.88311688 4.08020472,5.11874865 L4.08020472,5.11874865 Z" id="Shape"></path>
                        <path d="M8.99455269,4.51747148 C8.99455269,2.04721246 6.98146014,0.0364497381 4.50575283,0.0364497381 C2.03263156,0.0364497381 0.0198263469,2.04721246 0.0198263469,4.51747148 C0.0198263469,6.9877305 2.03263156,8.99677118 4.50575283,8.99677118 C6.98146014,8.99705819 8.99455269,6.98801751 8.99455269,4.51747148 L8.99455269,4.51747148 Z M4.50690218,7.79163378 C2.69983123,7.79163378 1.22750948,6.32273804 1.22750948,4.51775848 C1.22750948,2.7113439 2.69983123,1.24216115 4.50690218,1.24216115 C6.31713385,1.24216115 7.78859359,2.7110569 7.78859359,4.51775848 C7.78744424,6.32245103 6.31713385,7.79163378 4.50690218,7.79163378 L4.50690218,7.79163378 Z" id="Shape"></path>
                        <path d="M4.08020472,2.18239219 L2.3415203,3.91820334 C2.10590284,4.1529741 2.10590284,4.53526584 2.3415203,4.77175863 C2.45904169,4.88828299 2.6142044,4.94769319 2.76793042,4.94769319 C2.92079443,4.94769319 3.07681916,4.88971802 3.19347854,4.77175863 L4.93388698,3.03594748 C5.16950444,2.80060271 5.16950444,2.41802396 4.93388698,2.18239219 C4.69740751,1.94676042 4.31610951,1.94676042 4.08020472,2.18239219 L4.08020472,2.18239219 Z" id="Shape"></path>
                    </g>
                    <g id="Group">
                        <path d="M27.3129478,14.8034728 L27.3129478,6.54459353 C23.8490839,5.78517615 20.2243105,5.78575016 16.7598719,6.54459353 L16.7590099,14.8066298 C18.0069204,15.998278 19.8217494,16.9821339 22.0374155,17.6666427 C23.9990745,17.0607735 25.9216555,16.1308747 27.3129478,14.8034728 L27.3129478,14.8034728 Z" id="Shape"></path>
                        <path d="M9.51262375,7.456698 C9.51262375,7.12405826 9.78272181,6.85398579 10.1160343,6.85398579 C10.4493468,6.85398579 10.7197322,7.12377126 10.7197322,7.456698 L10.7197322,19.8203344 L15.5533381,19.8203344 L15.5533381,18.368085 L14.2200881,18.368085 C13.887063,18.368085 13.6166776,18.0980125 13.6166776,17.7653727 C13.6166776,17.432733 13.8867756,17.1626605 14.2200881,17.1626605 L15.5533381,17.1626605 L15.5533381,15.0482887 L14.2200881,15.0482887 C13.887063,15.0482887 13.6166776,14.7782163 13.6166776,14.4455765 C13.6166776,14.1129368 13.8867756,13.8428643 14.2200881,13.8428643 L15.5533381,13.8428643 L15.5533381,11.7267705 L14.2200881,11.7267705 C13.887063,11.7267705 13.6166776,11.456698 13.6166776,11.1240583 C13.6166776,10.7914185 13.8867756,10.5213461 14.2200881,10.5213461 L15.5533381,10.5213461 L15.5533381,8.40697424 L14.2200881,8.40697424 C13.887063,8.40697424 13.6166776,8.13690177 13.6166776,7.80426204 C13.6166776,7.4716223 13.8867756,7.20154983 14.2200881,7.20154983 L15.5533381,7.20154983 L15.5533381,5.08717802 L14.2200881,5.08717802 C13.887063,5.08717802 13.6166776,4.81710555 13.6166776,4.48446581 C13.6166776,4.15182607 13.8867756,3.88175361 14.2200881,3.88175361 L15.5533381,3.88175361 L15.5533381,1.48209801 C12.9739016,2.42692115 10.6076702,3.94345986 8.65578076,5.90342254 L8.65578076,19.8197604 L9.51262375,19.8197604 L9.51262375,7.456698 L9.51262375,7.456698 Z" id="Shape"></path>
                        <path d="M16.7598719,18.6037167 C17.6931469,18.5643969 18.8022729,18.4309392 19.9717401,18.1938724 C18.731875,17.6852981 17.6658497,17.0728277 16.7598719,16.3745426 L16.7598719,18.6037167 L16.7598719,18.6037167 Z" id="Shape"></path>
                        <path d="M16.7598719,19.8180383 L27.3129478,19.8180383 L27.3129478,16.3857358 C24.0979189,18.8720672 19.4059708,19.7006529 16.7598719,19.8108632 L16.7598719,19.8180383 L16.7598719,19.8180383 Z" id="Shape"></path>
                        <path d="M33.3505015,7.456698 C33.3505015,7.12405826 33.6208869,6.85398579 33.953912,6.85398579 C34.2872245,6.85398579 34.5573226,7.12377126 34.5573226,7.456698 L34.5573226,19.8180383 L35.4181883,19.8180383 L35.4181883,5.90399656 C33.4645748,3.94317285 31.0986307,2.42606013 28.5203436,1.48267202 L28.5203436,3.88232762 L29.853881,3.88232762 C30.1871935,3.88232762 30.4578662,4.15211308 30.4578662,4.48503982 C30.4578662,4.81796656 30.1874808,5.08775203 29.853881,5.08775203 L28.5203436,5.08775203 L28.5203436,7.20212384 L29.853881,7.20212384 C30.1871935,7.20212384 30.4578662,7.47219631 30.4578662,7.80483605 C30.4578662,8.13747578 30.1874808,8.40754825 29.853881,8.40754825 L28.5203436,8.40754825 L28.5203436,10.5219201 L29.853881,10.5219201 C30.1871935,10.5219201 30.4578662,10.7919925 30.4578662,11.1246323 C30.4578662,11.457272 30.1874808,11.7273445 29.853881,11.7273445 L28.5203436,11.7273445 L28.5203436,13.8434383 L29.853881,13.8434383 C30.1871935,13.8434383 30.4578662,14.1132238 30.4578662,14.4461505 C30.4578662,14.7790773 30.1874808,15.0488627 29.853881,15.0488627 L28.5203436,15.0488627 L28.5203436,17.1632346 L29.853881,17.1632346 C30.1871935,17.1632346 30.4578662,17.433307 30.4578662,17.7659468 C30.4578662,18.0985865 30.1874808,18.368659 29.853881,18.368659 L28.5203436,18.368659 L28.5203436,19.8209084 L33.3507888,19.8209084 L33.3507888,7.456698 L33.3505015,7.456698 Z" id="Shape"></path>
                        <path d="M36.6250094,9.93987228 L36.6250094,19.8194733 L40.8704337,19.8194733 C40.7218798,16.1816747 39.2285823,12.7436321 36.6250094,9.93987228 L36.6250094,9.93987228 Z" id="Shape"></path>
                        <path d="M7.44895965,9.93499318 C4.84136403,12.739614 3.3512273,16.1773696 3.20324804,19.8203344 L7.44895965,19.8203344 L7.44895965,9.93499318 L7.44895965,9.93499318 Z" id="Shape"></path>
                        <rect id="Rectangle-path" x="1.45105872" y="23.6022099" width="41.1718516" height="2.84049652"></rect>
                        <rect id="Rectangle-path" x="3.15152714" y="29.7602066" width="37.7668921" height="6.88813948"></rect>
                        <path d="M41.1821958,21.0248978 L2.89033657,21.0248978 L1.97458921,22.3967855 L42.0979432,22.3967855 L41.1821958,21.0248978 Z" id="Shape"></path>
                        <path d="M43.440388,36.6850829 L42.1091494,36.6850829 L42.1091494,29.8067016 L43.728301,27.3792064 C43.7941015,27.2819115 43.822548,27.1688312 43.8254214,27.0560379 C43.8254214,27.0543158 43.8254214,22.9891655 43.8193873,22.9751022 C43.8142152,22.8686231 43.7929521,22.7598479 43.7285884,22.664275 L42.1034026,20.2316137 C42.0516817,15.7210304 40.1121478,11.4610031 36.6255841,8.18540575 L36.6255841,5.65745856 C36.6255841,5.50218842 36.564381,5.35036234 36.4554798,5.23871708 C34.1378086,2.84881969 31.247472,1.06077348 28.0985309,0.0651503193 C27.9160711,0.0071751453 27.7146469,0.0404678195 27.5597715,0.152687092 C27.4060455,0.266915405 27.3129478,0.446007032 27.3129478,0.63801392 L27.3129478,5.31104255 C23.8430498,4.58950994 20.2268965,4.58950994 16.7595845,5.31104255 L16.7595845,0.637152902 C16.7595845,0.445720026 16.6696476,0.264332353 16.5127609,0.150965057 C16.3555868,0.0375977614 16.156174,0.00459209299 15.9728521,0.0642893019 C12.822187,1.05991246 9.93357445,2.84968071 7.61762727,5.23785607 C7.50728934,5.35122336 7.4478103,5.5013274 7.4478103,5.65631054 L7.4478103,8.18196168 C3.95923527,11.457559 2.02027601,15.7175863 1.96654374,20.2298917 L0.343082002,22.6639879 C0.278430871,22.7595609 0.257742509,22.866614 0.253432434,22.9748152 C0.24711099,22.9877305 0.242226238,27.0445577 0.242226238,27.0445577 C0.242226238,27.0445577 0.278430871,27.2816245 0.343082002,27.3789194 L1.96165899,29.8058406 L1.96165899,36.6856569 L0.631857054,36.6856569 C0.298831895,36.6856569 0.0284464977,36.9557294 0.0284464977,37.2883691 L0.0284464977,39.3648561 C0.0284464977,39.6974959 0.298544556,39.9678553 0.631857054,39.9678553 L43.439526,39.9678553 C43.7722638,39.9678553 44.0429365,39.6977829 44.0429365,39.3648561 L44.0429365,37.2883691 C44.0437985,36.9548683 43.7731258,36.6850829 43.440388,36.6850829 L43.440388,36.6850829 Z M36.6250094,9.93987228 C39.2285823,12.7436321 40.7218798,16.1816747 40.8704337,19.8194733 L36.6250094,19.8194733 L36.6250094,9.93987228 L36.6250094,9.93987228 Z M28.5200563,18.368372 L29.8535936,18.368372 C30.1869061,18.368372 30.4575788,18.0982995 30.4575788,17.7656598 C30.4575788,17.43302 30.1871935,17.1629475 29.8535936,17.1629475 L28.5200563,17.1629475 L28.5200563,15.0485757 L29.8535936,15.0485757 C30.1869061,15.0485757 30.4575788,14.7785033 30.4575788,14.4458635 C30.4575788,14.1132238 30.1871935,13.8431513 29.8535936,13.8431513 L28.5200563,13.8431513 L28.5200563,11.7270575 L29.8535936,11.7270575 C30.1869061,11.7270575 30.4575788,11.456985 30.4575788,11.1243453 C30.4575788,10.7917055 30.1871935,10.5216331 29.8535936,10.5216331 L28.5200563,10.5216331 L28.5200563,8.40726125 L29.8535936,8.40726125 C30.1869061,8.40726125 30.4575788,8.13718878 30.4575788,7.80454904 C30.4575788,7.47190931 30.1871935,7.20183684 29.8535936,7.20183684 L28.5200563,7.20183684 L28.5200563,5.08746502 L29.8535936,5.08746502 C30.1869061,5.08746502 30.4575788,4.81739255 30.4575788,4.48475282 C30.4575788,4.15211308 30.1871935,3.88204061 29.8535936,3.88204061 L28.5200563,3.88204061 L28.5200563,1.48238502 C31.0983434,2.42577312 33.4642875,3.94317285 35.417901,5.90370955 L35.417901,19.8174643 L34.5570352,19.8174643 L34.5570352,7.45612399 C34.5570352,7.12348425 34.2872245,6.85341178 33.9536247,6.85341178 C33.6208869,6.85341178 33.3502141,7.12319724 33.3502141,7.45612399 L33.3502141,19.8197604 L28.5197689,19.8197604 L28.5197689,18.368372 L28.5200563,18.368372 Z M16.7598719,6.54459353 C20.2243105,5.78575016 23.8490839,5.78517615 27.3129478,6.54459353 L27.3129478,14.8031858 C25.9216555,16.1305876 23.9990745,17.0604865 22.0374155,17.6666427 C19.8217494,16.9818469 18.0069204,15.998278 16.7590099,14.8066298 L16.7598719,6.54459353 L16.7598719,6.54459353 Z M27.3129478,16.3857358 L27.3129478,19.8180383 L16.7598719,19.8180383 L16.7598719,19.8108632 C19.4059708,19.7006529 24.0979189,18.8720672 27.3129478,16.3857358 L27.3129478,16.3857358 Z M16.7598719,18.6037167 L16.7598719,16.3745426 C17.6655624,17.0728277 18.7315877,17.6852981 19.9717401,18.1938724 C18.8025603,18.4309392 17.6931469,18.5643969 16.7598719,18.6037167 L16.7598719,18.6037167 Z M8.65549343,5.90399656 C10.6073829,3.94403387 12.9736143,2.42749516 15.5530508,1.48267202 L15.5530508,3.88232762 L14.2198008,3.88232762 C13.8867756,3.88232762 13.6163902,4.15211308 13.6163902,4.48503982 C13.6163902,4.81796656 13.8864883,5.08775203 14.2198008,5.08775203 L15.5530508,5.08775203 L15.5530508,7.20212384 L14.2198008,7.20212384 C13.8867756,7.20212384 13.6163902,7.47219631 13.6163902,7.80483605 C13.6163902,8.13747578 13.8864883,8.40754825 14.2198008,8.40754825 L15.5530508,8.40754825 L15.5530508,10.5219201 L14.2198008,10.5219201 C13.8867756,10.5219201 13.6163902,10.7919925 13.6163902,11.1246323 C13.6163902,11.457272 13.8864883,11.7273445 14.2198008,11.7273445 L15.5530508,11.7273445 L15.5530508,13.8434383 L14.2198008,13.8434383 C13.8867756,13.8434383 13.6163902,14.1132238 13.6163902,14.4461505 C13.6163902,14.7790773 13.8864883,15.0488627 14.2198008,15.0488627 L15.5530508,15.0488627 L15.5530508,17.1632346 L14.2198008,17.1632346 C13.8867756,17.1632346 13.6163902,17.433307 13.6163902,17.7659468 C13.6163902,18.0985865 13.8864883,18.368659 14.2198008,18.368659 L15.5530508,18.368659 L15.5530508,19.8209084 L10.7194449,19.8209084 L10.7194449,7.456698 C10.7194449,7.12405826 10.4490595,6.85398579 10.115747,6.85398579 C9.78243447,6.85398579 9.51233642,7.12377126 9.51233642,7.456698 L9.51233642,19.8203344 L8.65549343,19.8203344 L8.65549343,5.90399656 L8.65549343,5.90399656 Z M7.44895965,9.93499318 L7.44895965,19.8203344 L3.20324804,19.8203344 C3.3512273,16.1776566 4.84136403,12.739614 7.44895965,9.93499318 L7.44895965,9.93499318 Z M2.89033657,21.0248978 L41.1821958,21.0248978 L42.0982305,22.3964985 L1.97458921,22.3964985 L2.89033657,21.0248978 L2.89033657,21.0248978 Z M1.45105872,26.4427065 L1.45105872,23.6022099 L42.6229103,23.6022099 L42.6229103,26.4427065 L1.45105872,26.4427065 L1.45105872,26.4427065 Z M40.9184192,29.7602066 L40.9184192,36.6483461 L3.15152714,36.6483461 L3.15152714,29.7602066 L40.9184192,29.7602066 L40.9184192,29.7602066 Z M42.8570911,38.8726412 L1.21256788,38.8726412 L1.21256788,37.9398723 L42.8570911,37.9398723 L42.8570911,38.8726412 L42.8570911,38.8726412 Z" id="Shape" fill="#6621D7"></path>
                    </g>
                    <path d="M8.83766595,34.9263113 C8.83766595,35.309464 8.52676584,35.6200043 8.14316913,35.6200043 L8.14316913,35.6200043 C7.75985976,35.6200043 7.44867231,35.309464 7.44867231,34.9263113 L7.44867231,31.4822415 C7.44867231,31.0990888 7.75957242,30.7885485 8.14316913,30.7885485 L8.14316913,30.7885485 C8.52676584,30.7885485 8.83766595,31.0990888 8.83766595,31.4822415 L8.83766595,34.9263113 L8.83766595,34.9263113 Z" id="Shape" fill="#6621D7"></path>
                    <path d="M15.7846455,34.9263113 C15.7846455,35.309464 15.4737454,35.6200043 15.0901487,35.6200043 L15.0901487,35.6200043 C14.7068393,35.6200043 14.3956518,35.309464 14.3956518,34.9263113 L14.3956518,31.4822415 C14.3956518,31.0990888 14.706552,30.7885485 15.0901487,30.7885485 L15.0901487,30.7885485 C15.4737454,30.7885485 15.7846455,31.0990888 15.7846455,31.4822415 L15.7846455,34.9263113 L15.7846455,34.9263113 Z" id="Shape" fill="#6621D7"></path>
                    <path d="M22.7313377,34.9024898 C22.7313377,35.2856425 22.4204376,35.5961828 22.0368409,35.5961828 L22.0368409,35.5961828 C21.6535315,35.5961828 21.342344,35.2856425 21.342344,34.9024898 L21.342344,31.45842 C21.342344,31.0752673 21.6532442,30.764727 22.0368409,30.764727 L22.0368409,30.764727 C22.4201502,30.764727 22.7313377,31.0752673 22.7313377,31.45842 L22.7313377,34.9024898 L22.7313377,34.9024898 Z" id="Shape" fill="#6621D7"></path>
                    <path d="M29.6783172,34.9263113 C29.6783172,35.309464 29.3674171,35.6200043 28.9838204,35.6200043 L28.9838204,35.6200043 C28.6002237,35.6200043 28.2893236,35.309464 28.2893236,34.9263113 L28.2893236,31.4822415 C28.2893236,31.0990888 28.6002237,30.7885485 28.9838204,30.7885485 L28.9838204,30.7885485 C29.3674171,30.7885485 29.6783172,31.0990888 29.6783172,31.4822415 L29.6783172,34.9263113 L29.6783172,34.9263113 Z" id="Shape" fill="#6621D7"></path>
                    <path d="M36.6250094,34.9263113 C36.6250094,35.309464 36.3141093,35.6200043 35.9302253,35.6200043 L35.9302253,35.6200043 C35.5469159,35.6200043 35.2360158,35.309464 35.2360158,34.9263113 L35.2360158,31.4822415 C35.2360158,31.0990888 35.5469159,30.7885485 35.9302253,30.7885485 L35.9302253,30.7885485 C36.3141093,30.7885485 36.6250094,31.0990888 36.6250094,31.4822415 L36.6250094,34.9263113 L36.6250094,34.9263113 Z" id="Shape" fill="#6621D7"></path>
                </g>
            </g>
        </g>
    </g>
</svg>